<svg xmlns="http://www.w3.org/2000/svg" viewBox="0 0 24 24" fill="none" stroke="currentColor" stroke-width="2" stroke-linecap="round" stroke-linejoin="round" class="lucide lucide-bus"><path d="M6 17H4a2 2 0 0 1-2-2V7a2 2 0 0 1 2-2h1"/><path d="M9 17H6"/><path d="m3 11 1.3-1.3a.5.5 0 0 1 .7 0L6 11"/><path d="M18 9h2a2 2 0 0 1 2 2v1a2 2 0 0 1-2 2h-2"/><path d="M10 9h4"/><path d="M16 9h-2"/><rect width="10" height="12" x="6" y="5" rx="2"/><path d="M6 5H3"/><path d="M21 5h-3"/><path d="M6 17v2"/><path d="M18 17v2"/><path d="M14 17h-4"/></svg>
